<svg aria-hidden="true" style="position: absolute; width: 0; height: 0; overflow: hidden;" version="1.1" xmlns="http://www.w3.org/2000/svg" xmlns:xlink="http://www.w3.org/1999/xlink">
<defs>
<symbol id="google-gmail" viewBox="0 0 42 32">
<path fill="#4285f4" style="fill: var(--color1, #4285f4)" d="M9.647 31.842v-16.399l-5.086-4.653-4.561-2.582v20.74c0 1.601 1.298 2.894 2.894 2.894h6.753z"></path>
<path fill="#34a853" style="fill: var(--color2, #34a853)" d="M32.799 31.842h6.753c1.601 0 2.894-1.297 2.894-2.894v-20.74l-5.166 2.958-4.481 4.277v16.399z"></path>
<path fill="#ea4335" style="fill: var(--color3, #ea4335)" d="M9.647 15.443l-0.692-6.408 0.692-6.133 11.576 8.682 11.576-8.682 0.774 5.802-0.774 6.739-11.576 8.682z"></path>
<path fill="#fbbc04" style="fill: var(--color4, #fbbc04)" d="M32.799 2.902v12.541l9.647-7.235v-3.859c0-3.579-4.085-5.619-6.946-3.473l-2.701 2.026z"></path>
<path fill="#c5221f" style="fill: var(--color5, #c5221f)" d="M0 8.208l9.647 7.235v-12.541l-2.701-2.026c-2.865-2.146-6.946-0.106-6.946 3.473v3.859z"></path>
</symbol>
<symbol id="github" viewBox="0 0 118 32">
<path d="M22.721 13.655h-9.913c-0.256 0-0.463 0.208-0.463 0.464v4.847c0 0.256 0.208 0.464 0.463 0.464h3.867v6.022c0 0-0.868 0.296-3.269 0.296-2.832 0-6.789-1.035-6.789-9.735 0-8.702 4.12-9.847 7.988-9.847 3.348 0 4.791 0.59 5.708 0.873 0.288 0.088 0.555-0.199 0.555-0.455l1.106-4.683c0-0.12-0.041-0.264-0.177-0.362-0.373-0.266-2.647-1.538-8.391-1.538-6.618 0-13.406 2.816-13.406 16.351s7.772 15.553 14.322 15.553c5.423 0 8.713-2.317 8.713-2.317 0.136-0.075 0.15-0.264 0.15-0.351v-15.116c0-0.256-0.207-0.464-0.463-0.464zM73.783 1.694c0-0.258-0.204-0.466-0.46-0.466h-5.582c-0.255 0-0.462 0.208-0.462 0.466 0 0.001 0.001 10.787 0.001 10.787h-8.7v-10.787c0-0.258-0.205-0.466-0.461-0.466h-5.582c-0.254 0-0.461 0.208-0.461 0.466v29.208c0 0.258 0.207 0.467 0.461 0.467h5.582c0.255 0 0.461-0.21 0.461-0.467v-12.493h8.7c0 0-0.015 12.492-0.015 12.493 0 0.258 0.207 0.467 0.462 0.467h5.595c0.256 0 0.46-0.21 0.461-0.467v-29.208zM33.236 5.599c0-2.010-1.611-3.634-3.599-3.634-1.986 0-3.599 1.624-3.599 3.634 0 2.008 1.613 3.636 3.599 3.636 1.988 0 3.599-1.629 3.599-3.636zM32.794 24.756v-13.482c0-0.256-0.207-0.465-0.462-0.465h-5.564c-0.255 0-0.484 0.263-0.484 0.519v19.316c0 0.568 0.354 0.736 0.812 0.736h5.013c0.55 0 0.685-0.27 0.685-0.746v-5.879zM95.116 10.808h-5.539c-0.254 0-0.461 0.209-0.461 0.467v14.322c0 0-1.407 1.029-3.404 1.029s-2.527-0.906-2.527-2.862v-12.489c0-0.258-0.206-0.467-0.461-0.467h-5.622c-0.254 0-0.462 0.209-0.462 0.467v13.435c0 5.809 3.237 7.23 7.691 7.23 3.653 0 6.599-2.018 6.599-2.018s0.14 1.064 0.204 1.19c0.064 0.126 0.229 0.253 0.408 0.253l3.576-0.016c0.254 0 0.462-0.21 0.462-0.466l-0.002-19.607c0-0.258-0.207-0.467-0.462-0.467zM107.878 26.637c-1.921-0.058-3.224-0.93-3.224-0.93v-9.25c0 0 1.286-0.788 2.863-0.929 1.995-0.179 3.917 0.424 3.917 5.182 0 5.018-0.867 6.008-3.555 5.927zM110.063 10.181c-3.146 0-5.286 1.404-5.286 1.404v-9.89c0-0.258-0.206-0.466-0.461-0.466h-5.597c-0.254 0-0.461 0.208-0.461 0.466v29.208c0 0.258 0.207 0.467 0.462 0.467h3.884c0.175 0 0.307-0.090 0.405-0.248 0.097-0.157 0.236-1.347 0.236-1.347s2.289 2.169 6.622 2.169c5.087 0 8.004-2.58 8.004-11.583s-4.659-10.18-7.807-10.18zM48.859 10.758h-4.187c0 0-0.006-5.53-0.006-5.531 0-0.209-0.108-0.314-0.35-0.314h-5.706c-0.222 0-0.341 0.098-0.341 0.311v5.716c0 0-2.859 0.69-3.053 0.746s-0.334 0.233-0.334 0.445v3.592c0 0.258 0.206 0.467 0.462 0.467h2.925v8.641c0 6.418 4.502 7.049 7.54 7.049 1.388 0 3.049-0.446 3.323-0.547 0.166-0.061 0.262-0.233 0.262-0.419l0.005-3.951c0-0.258-0.218-0.466-0.463-0.466-0.244 0-0.868 0.099-1.511 0.099-2.057 0-2.753-0.956-2.753-2.194 0-1.237-0-8.212-0-8.212h4.187c0.255 0 0.462-0.208 0.462-0.467v-4.499c0-0.258-0.207-0.466-0.462-0.466z"></path>
</symbol>
<symbol id="linkedin" viewBox="0 0 128 32">
<path fill="#0a66c2" style="fill: var(--color6, #0a66c2)" d="M50.514 18.743l7.063 8.686h-5.577l-6.286-7.977v7.977h-4.571v-22.857h4.571v13.44l5.806-6.583h5.829l-6.834 7.314zM32.229 10.971c-2.032 0.030-3.919 1.055-5.051 2.743v-2.286h-4.32v16h4.571v-7.474c-0.121-1.097 0.218-2.194 0.938-3.031s1.754-1.337 2.857-1.381c2.651 0 3.063 2.606 3.063 4.411v7.474h4.571v-8.48c0-5.029-1.669-7.977-6.537-7.977h-0.091zM73.143 19.794c0.017 0.335 0.017 0.671 0 1.006h-12v0.16c0.402 1.969 2.175 3.354 4.183 3.269 1.558 0.068 3.076-0.502 4.206-1.577l3.040 2.286c-1.948 1.988-4.647 3.059-7.429 2.949-2.305 0.146-4.56-0.715-6.182-2.359s-2.452-3.91-2.275-6.213c-0.047-2.271 0.852-4.46 2.481-6.042s3.844-2.416 6.113-2.301c4.297 0 7.863 3.040 7.863 8.823v0zM68.891 17.829c-0.034-0.915-0.442-1.776-1.13-2.381s-1.593-0.901-2.505-0.819c-2.010-0.217-3.83 1.198-4.114 3.2h7.749zM4.571 4.571h-4.571v22.857h13.714v-4.571h-9.143v-18.286zM86.857 4.571h4.571v22.857h-4.32v-1.6c-1.112 1.37-2.808 2.133-4.571 2.057-2.147-0.055-4.177-0.994-5.609-2.595s-2.14-3.722-1.957-5.862c-0.218-2.144 0.474-4.281 1.909-5.89s3.479-2.54 5.634-2.567c1.604-0.070 3.168 0.506 4.343 1.6v-8zM87.2 19.429c0.145-1.068-0.179-2.146-0.889-2.957s-1.736-1.274-2.814-1.271c-2.187 0.159-3.844 2.039-3.726 4.229-0.118 2.189 1.539 4.070 3.726 4.229 1.078 0.003 2.104-0.46 2.814-1.271s1.034-1.889 0.889-2.957v0zM18.286 4.114c-1.525 0.022-2.773 1.22-2.857 2.743 0 1.578 1.279 2.857 2.857 2.857s2.857-1.279 2.857-2.857c-0.084-1.523-1.332-2.721-2.857-2.743v0zM16 27.429h4.571v-16h-4.571v16zM128 2.286v27.429c0 1.262-1.023 2.286-2.286 2.286h-27.429c-1.262 0-2.286-1.023-2.286-2.286v-27.429c0-1.262 1.023-2.286 2.286-2.286h27.429c1.262 0 2.286 1.023 2.286 2.286zM105.143 11.429h-4.571v16h4.571v-16zM105.714 6.857c0-1.578-1.279-2.857-2.857-2.857s-2.857 1.279-2.857 2.857c0 1.578 1.279 2.857 2.857 2.857s2.857-1.279 2.857-2.857zM123.429 18.949c0-5.029-1.669-7.977-6.537-7.977-2.064 0-3.993 1.029-5.143 2.743v-2.286h-4.32v16h4.571v-7.474c-0.121-1.097 0.218-2.194 0.938-3.031s1.754-1.337 2.857-1.381c2.651 0 3.063 2.606 3.063 4.411v7.474h4.571v-8.48z"></path>
</symbol>
</defs>
</svg>
