<svg aria-hidden="true" style="position: absolute; width: 0; height: 0; overflow: hidden;" version="1.1" xmlns="http://www.w3.org/2000/svg" xmlns:xlink="http://www.w3.org/1999/xlink">
<defs>
<symbol id="nodejs" viewBox="0 0 28 32">
<path fill="#539e43" style="fill: var(--color1, #539e43)" d="M14.173 31.941c-0.44 0-0.851-0.117-1.232-0.323l-3.903-2.318c-0.587-0.323-0.293-0.44-0.117-0.499 0.792-0.264 0.939-0.323 1.761-0.792 0.088-0.059 0.205-0.029 0.293 0.029l2.993 1.79c0.117 0.059 0.264 0.059 0.352 0l11.708-6.778c0.117-0.059 0.176-0.176 0.176-0.323v-13.527c0-0.147-0.059-0.264-0.176-0.323l-11.708-6.749c-0.117-0.059-0.264-0.059-0.352 0l-11.708 6.749c-0.117 0.059-0.176 0.205-0.176 0.323v13.527c0 0.117 0.059 0.264 0.176 0.323l3.198 1.849c1.731 0.88 2.817-0.147 2.817-1.174v-13.351c0-0.176 0.147-0.352 0.352-0.352h1.497c0.176 0 0.352 0.147 0.352 0.352v13.351c0 2.318-1.262 3.668-3.463 3.668-0.675 0-1.203 0-2.7-0.734l-3.081-1.761c-0.763-0.44-1.232-1.262-1.232-2.142v-13.527c0-0.88 0.469-1.702 1.232-2.142l11.708-6.778c0.734-0.411 1.731-0.411 2.465 0l11.708 6.778c0.763 0.44 1.232 1.262 1.232 2.142v13.527c0 0.88-0.47 1.702-1.232 2.142l-11.708 6.778c-0.381 0.176-0.822 0.264-1.232 0.264v0zM17.782 22.639c-5.135 0-6.192-2.348-6.192-4.343 0-0.176 0.147-0.352 0.352-0.352h1.526c0.176 0 0.323 0.117 0.323 0.293 0.235 1.555 0.91 2.318 4.020 2.318 2.465 0 3.521-0.558 3.521-1.878 0-0.763-0.293-1.32-4.137-1.702-3.198-0.323-5.194-1.027-5.194-3.58 0-2.377 1.995-3.785 5.341-3.785 3.756 0 5.605 1.291 5.839 4.108 0 0.088-0.029 0.176-0.088 0.264-0.059 0.059-0.147 0.117-0.235 0.117h-1.526c-0.147 0-0.293-0.117-0.323-0.264-0.352-1.614-1.262-2.142-3.668-2.142-2.7 0-3.022 0.939-3.022 1.643 0 0.851 0.381 1.115 4.020 1.585 3.609 0.47 5.311 1.144 5.311 3.668-0.029 2.582-2.142 4.049-5.869 4.049v0z"></path>
</symbol>
<symbol id="typescript" viewBox="0 0 32 32">
<path fill="#3178c6" style="fill: var(--color2, #3178c6)" d="M2.5 0h27c1.381 0 2.5 1.119 2.5 2.5v27c0 1.381-1.119 2.5-2.5 2.5h-27c-1.381 0-2.5-1.119-2.5-2.5v-27c0-1.381 1.119-2.5 2.5-2.5z"></path>
<path fill="#fff" style="fill: var(--color3, #fff)" d="M18.815 25.059v3.453c0.561 0.288 1.226 0.503 1.992 0.647s1.575 0.216 2.424 0.216c0.828 0 1.614-0.079 2.359-0.237s1.398-0.419 1.96-0.782c0.561-0.363 1.006-0.838 1.334-1.424s0.491-1.311 0.491-2.174c0-0.626-0.094-1.174-0.281-1.645s-0.457-0.89-0.81-1.257c-0.353-0.367-0.776-0.696-1.269-0.987s-1.049-0.566-1.668-0.825c-0.454-0.187-0.86-0.369-1.22-0.545s-0.666-0.356-0.918-0.54c-0.252-0.183-0.446-0.378-0.583-0.583s-0.205-0.437-0.205-0.696c0-0.237 0.061-0.451 0.183-0.642s0.295-0.354 0.518-0.491c0.223-0.137 0.497-0.243 0.821-0.318s0.684-0.113 1.080-0.113c0.288 0 0.592 0.022 0.912 0.065s0.642 0.11 0.966 0.2c0.324 0.090 0.639 0.203 0.945 0.34s0.588 0.295 0.848 0.475v-3.226c-0.526-0.201-1.1-0.351-1.722-0.448s-1.337-0.146-2.143-0.146c-0.821 0-1.598 0.088-2.332 0.264s-1.38 0.451-1.938 0.825c-0.558 0.374-0.999 0.851-1.323 1.43s-0.486 1.271-0.486 2.077c0 1.029 0.297 1.906 0.891 2.633s1.495 1.341 2.705 1.845c0.475 0.194 0.918 0.385 1.328 0.572s0.765 0.381 1.064 0.582 0.535 0.421 0.707 0.658c0.173 0.237 0.259 0.507 0.259 0.809 0 0.223-0.054 0.43-0.162 0.62s-0.272 0.356-0.491 0.496-0.493 0.25-0.821 0.329c-0.328 0.079-0.711 0.119-1.15 0.119-0.749 0-1.49-0.131-2.224-0.394s-1.415-0.656-2.041-1.181v0zM13.060 16.468h4.44v-2.843h-12.375v2.843h4.418v12.657h3.517v-12.657z"></path>
</symbol>
<symbol id="mongodb" viewBox="0 0 15 32">
<path fill="#01ec64" style="fill: var(--color4, #01ec64)" d="M10.237 3.562c-1.341-1.591-2.496-3.208-2.732-3.543-0.025-0.025-0.062-0.025-0.087 0-0.236 0.336-1.391 1.952-2.732 3.543-11.512 14.682 1.813 24.591 1.813 24.591l0.112 0.075c0.099 1.529 0.348 3.73 0.348 3.73h0.994c0 0 0.248-2.188 0.348-3.73l0.112-0.087c0.012 0.012 13.338-9.896 1.826-24.579zM7.455 27.929c0 0-0.596-0.51-0.758-0.771v-0.025l0.72-15.988c0-0.050 0.075-0.050 0.075 0l0.72 15.988v0.025c-0.161 0.261-0.758 0.771-0.758 0.771z"></path>
</symbol>
<symbol id="css-3" viewBox="0 0 23 32">
<path fill="#264de4" style="fill: var(--color5, #264de4)" d="M11.332 31.919l-9.235-2.564-2.058-23.083h22.614l-2.060 23.079-9.26 2.567z"></path>
<path fill="#2965f1" style="fill: var(--color6, #2965f1)" d="M18.829 27.882l1.761-19.722h-9.243v21.797l7.483-2.075z"></path>
<path fill="#ebebeb" style="fill: var(--color7, #ebebeb)" d="M4.757 16.721l0.254 2.831h6.335v-2.831h-6.589z"></path>
<path fill="#ebebeb" style="fill: var(--color7, #ebebeb)" d="M4.247 10.991l0.257 2.831h6.841v-2.831h-7.099z"></path>
<path fill="#ebebeb" style="fill: var(--color7, #ebebeb)" d="M11.346 24.074l-0.012 0.003-3.153-0.851-0.202-2.258h-2.842l0.397 4.445 5.799 1.61 0.013-0.004v-2.945z"></path>
<path fill="#000" style="fill: var(--color8, #000)" d="M5.361 0h3.429v1.434h-1.995v1.434h1.995v1.434h-3.429v-4.302z"></path>
<path fill="#000" style="fill: var(--color8, #000)" d="M9.476 0h3.429v1.247h-1.995v0.249h1.995v2.868h-3.429v-1.309h1.995v-0.249h-1.995v-2.805z"></path>
<path fill="#000" style="fill: var(--color8, #000)" d="M13.591 0h3.429v1.247h-1.995v0.249h1.995v2.868h-3.429v-1.309h1.995v-0.249h-1.995v-2.805z"></path>
<path fill="#fff" style="fill: var(--color3, #fff)" d="M17.917 16.721l0.511-5.73h-7.092v2.831h3.989l-0.258 2.899h-3.732v2.831h3.486l-0.329 3.672-3.157 0.852v2.945l5.804-1.608 0.043-0.478 0.665-7.453 0.069-0.76z"></path>
</symbol>
<symbol id="figma" viewBox="0 0 21 32">
<path fill="#0acf83" style="fill: var(--color9, #0acf83)" d="M5.333 32c2.944 0 5.333-2.389 5.333-5.333v-5.333h-5.333c-2.944 0-5.333 2.389-5.333 5.333s2.389 5.333 5.333 5.333z"></path>
<path fill="#a259ff" style="fill: var(--color10, #a259ff)" d="M0 16c0-2.944 2.389-5.333 5.333-5.333h5.333v10.667h-5.333c-2.944 0-5.333-2.389-5.333-5.333z"></path>
<path fill="#f24e1e" style="fill: var(--color11, #f24e1e)" d="M0 5.333c0-2.944 2.389-5.333 5.333-5.333h5.333v10.667h-5.333c-2.944 0-5.333-2.389-5.333-5.333z"></path>
<path fill="#ff7262" style="fill: var(--color12, #ff7262)" d="M10.667 0h5.333c2.944 0 5.333 2.389 5.333 5.333s-2.389 5.333-5.333 5.333h-5.333v-10.667z"></path>
<path fill="#1abcfe" style="fill: var(--color13, #1abcfe)" d="M21.333 16c0 2.944-2.389 5.333-5.333 5.333s-5.333-2.389-5.333-5.333c0-2.944 2.389-5.333 5.333-5.333s5.333 2.389 5.333 5.333z"></path>
</symbol>
<symbol id="firebase" viewBox="0 0 23 32">
<path fill="#ffc24a" style="fill: var(--color14, #ffc24a)" d="M0 25.8l0.194-0.271 9.154-17.369 0.019-0.184-4.035-7.579c-0.338-0.635-1.29-0.474-1.401 0.236l-3.931 25.167z"></path>
<path fill="#ffa712" style="fill: var(--color15, #ffa712)" d="M0.114 25.594l0.146-0.285 9.058-17.187-4.025-7.61c-0.335-0.628-1.184-0.468-1.294 0.235l-3.885 24.847z"></path>
<path fill="#000" style="fill: var(--color8, #000)" d="M0.114 25.594l0.146-0.285 9.058-17.187-4.025-7.61c-0.335-0.628-1.184-0.468-1.294 0.235l-3.885 24.847z"></path>
<path fill="#f4bd62" style="fill: var(--color16, #f4bd62)" d="M12.308 13.71l3.004-3.077-3.005-5.737c-0.285-0.543-1.082-0.545-1.364 0l-1.606 3.062v0.261l2.971 5.491z"></path>
<path fill="#ffa50e" style="fill: var(--color17, #ffa50e)" d="M12.255 13.582l2.921-2.991-2.921-5.562c-0.277-0.528-0.951-0.583-1.226-0.054l-1.614 3.11-0.048 0.159 2.888 5.338z"></path>
<path fill="#000" style="fill: var(--color8, #000)" d="M12.255 13.582l2.921-2.991-2.921-5.562c-0.277-0.528-0.951-0.583-1.226-0.054l-1.614 3.11-0.048 0.159 2.888 5.338z"></path>
<path fill="#f6820c" style="fill: var(--color18, #f6820c)" d="M0 25.8l0.088-0.088 0.319-0.13 11.713-11.67 0.148-0.404-2.922-5.568z"></path>
<path fill="#fde068" style="fill: var(--color19, #fde068)" d="M12.683 31.686l10.601-5.912-3.027-18.643c-0.095-0.583-0.81-0.814-1.228-0.396l-19.029 19.066 10.54 5.885c0.666 0.372 1.477 0.372 2.144 0.001z"></path>
<path fill="#fcca3f" style="fill: var(--color20, #fcca3f)" d="M23.189 25.724l-3.004-18.502c-0.094-0.579-0.689-0.818-1.103-0.403l-18.964 18.945 10.424 5.826c0.661 0.369 1.466 0.369 2.127 0.001l10.52-5.867z"></path>
<path fill="#eeab37" style="fill: var(--color21, #eeab37)" d="M12.683 31.511c-0.666 0.372-1.478 0.371-2.144-0.001l-10.455-5.8-0.085 0.090 10.54 5.885c0.666 0.372 1.477 0.372 2.144 0.001l10.601-5.912-0.026-0.16-10.575 5.898z"></path>
</symbol>
<symbol id="html-5" viewBox="0 0 23 32">
<path fill="#e44d26" style="fill: var(--color22, #e44d26)" d="M22.653 6.273l-2.060 23.079-9.26 2.567-9.235-2.564-2.058-23.083h22.614z"></path>
<path fill="#f16529" style="fill: var(--color23, #f16529)" d="M11.346 29.957l7.483-2.075 1.761-19.722h-9.243v21.797z"></path>
<path fill="#ebebeb" style="fill: var(--color7, #ebebeb)" d="M7.341 13.822h4.005v-2.831h-7.099l0.068 0.759 0.696 7.801h6.335v-2.831h-3.746l-0.259-2.899z"></path>
<path fill="#ebebeb" style="fill: var(--color7, #ebebeb)" d="M7.979 20.968h-2.842l0.397 4.445 5.799 1.61 0.013-0.004v-2.945l-0.012 0.003-3.153-0.851-0.202-2.258z"></path>
<path fill="#000" style="fill: var(--color8, #000)" d="M2.143 0h1.439v1.421h1.316v-1.421h1.439v4.304h-1.439v-1.441h-1.316v1.441h-1.439v-4.304h-0z"></path>
<path fill="#000" style="fill: var(--color8, #000)" d="M8.229 1.427h-1.267v-1.427h3.972v1.427h-1.267v2.877h-1.439v-2.877h-0z"></path>
<path fill="#000" style="fill: var(--color8, #000)" d="M11.565 0h1.5l0.923 1.512 0.922-1.512h1.501v4.304h-1.433v-2.133l-0.99 1.53h-0.025l-0.991-1.53v2.133h-1.408v-4.304z"></path>
<path fill="#000" style="fill: var(--color8, #000)" d="M17.127 0h1.439v2.882h2.023v1.423h-3.462v-4.304z"></path>
<path fill="#fff" style="fill: var(--color3, #fff)" d="M11.336 19.552h3.486l-0.329 3.672-3.157 0.852v2.945l5.804-1.608 0.043-0.478 0.665-7.453 0.069-0.76h-6.581v2.831z"></path>
<path fill="#fff" style="fill: var(--color3, #fff)" d="M11.336 13.815v0.007h6.838l0.057-0.636 0.129-1.435 0.068-0.759h-7.092v2.824z"></path>
</symbol>
<symbol id="javascript" viewBox="0 0 32 32">
<path fill="#f7df1e" style="fill: var(--color24, #f7df1e)" d="M0 0h32v32h-32v-32z"></path>
<path fill="#000" style="fill: var(--color8, #000)" d="M8.414 26.742l2.449-1.482c0.472 0.838 0.902 1.546 1.933 1.546 0.988 0 1.611-0.387 1.611-1.89v-10.225h3.007v10.267c0 3.115-1.826 4.532-4.489 4.532-2.406 0-3.802-1.246-4.511-2.749z"></path>
<path fill="#000" style="fill: var(--color8, #000)" d="M19.048 26.419l2.449-1.418c0.645 1.053 1.482 1.826 2.964 1.826 1.246 0 2.041-0.623 2.041-1.482 0-1.031-0.816-1.396-2.191-1.997l-0.752-0.322c-2.17-0.923-3.609-2.083-3.609-4.532 0-2.255 1.718-3.974 4.404-3.974 1.912 0 3.287 0.666 4.274 2.406l-2.341 1.504c-0.516-0.924-1.074-1.289-1.933-1.289-0.881 0-1.439 0.558-1.439 1.289 0 0.902 0.559 1.267 1.847 1.826l0.752 0.322c2.556 1.096 3.995 2.212 3.995 4.726 0 2.707-2.127 4.189-4.983 4.189-2.792 0-4.597-1.332-5.477-3.072z"></path>
</symbol>
<symbol id="postman" viewBox="0 0 32 32">
<path fill="#ff6c37" style="fill: var(--color25, #ff6c37)" d="M31.869 18.032c1.12-8.766-5.071-16.781-13.822-17.901s-16.797 5.071-17.917 13.822c-1.12 8.75 5.071 16.781 13.822 17.917 8.766 1.12 16.781-5.071 17.917-13.837z"></path>
<path fill="#fff" style="fill: var(--color3, #fff)" d="M21.775 10.273l-6.751 6.751-1.904-1.904c6.639-6.639 7.295-6.063 8.654-4.847v0z"></path>
<path fill="#ff6c37" style="fill: var(--color25, #ff6c37)" d="M15.024 17.184c-0.048 0-0.080-0.016-0.112-0.048l-1.92-1.904c-0.064-0.064-0.064-0.16 0-0.224 6.751-6.751 7.455-6.111 8.878-4.831 0.032 0.032 0.048 0.064 0.048 0.112s-0.016 0.080-0.048 0.112l-6.751 6.735c-0.016 0.032-0.064 0.048-0.096 0.048zM13.344 15.12l1.68 1.68 6.511-6.511c-1.184-1.056-1.984-1.376-8.191 4.831v0z"></path>
<path fill="#fff" style="fill: var(--color3, #fff)" d="M16.96 18.959l-1.84-1.84 6.751-6.751c1.808 1.824-0.896 4.783-4.911 8.59z"></path>
<path fill="#ff6c37" style="fill: var(--color25, #ff6c37)" d="M16.96 19.119c-0.048 0-0.080-0.016-0.112-0.048l-1.84-1.84c-0.032-0.032-0.032-0.064-0.032-0.112s0.016-0.080 0.048-0.112l6.751-6.751c0.064-0.064 0.16-0.064 0.224 0 0.416 0.384 0.64 0.928 0.624 1.488-0.032 1.776-2.048 4.031-5.535 7.327-0.048 0.032-0.096 0.048-0.128 0.048v0zM15.344 17.12c1.024 1.040 1.456 1.456 1.616 1.616 2.688-2.56 5.295-5.183 5.311-6.991 0.016-0.416-0.144-0.832-0.416-1.152l-6.511 6.527z"></path>
<path fill="#fff" style="fill: var(--color3, #fff)" d="M13.152 15.168l1.36 1.36c0.032 0.032 0.032 0.064 0 0.096-0.016 0.016-0.016 0.016-0.032 0.016l-2.816 0.608c-0.144 0.016-0.272-0.080-0.304-0.224-0.016-0.080 0.016-0.16 0.064-0.208l1.632-1.632c0.032-0.032 0.080-0.048 0.096-0.016z"></path>
<path fill="#ff6c37" style="fill: var(--color25, #ff6c37)" d="M11.617 17.408c-0.24 0-0.416-0.192-0.416-0.432 0-0.112 0.048-0.224 0.128-0.304l1.632-1.632c0.096-0.080 0.224-0.080 0.32 0l1.36 1.36c0.096 0.080 0.096 0.224 0 0.32-0.032 0.032-0.064 0.048-0.112 0.064l-2.816 0.608c-0.032 0-0.064 0.016-0.096 0.016v0zM13.105 15.344l-1.568 1.568c-0.032 0.032-0.048 0.080-0.016 0.128 0.016 0.048 0.064 0.064 0.112 0.048l2.64-0.576-1.168-1.168z"></path>
<path fill="#fff" style="fill: var(--color3, #fff)" d="M25.342 6.53c-1.024-0.992-2.672-0.96-3.663 0.080s-0.96 2.672 0.080 3.663c0.848 0.816 2.128 0.96 3.135 0.352l-1.824-1.824 2.272-2.272z"></path>
<path fill="#ff6c37" style="fill: var(--color25, #ff6c37)" d="M23.551 11.153c-1.52 0-2.752-1.232-2.752-2.752s1.232-2.752 2.752-2.752c0.704 0 1.392 0.272 1.904 0.768 0.032 0.032 0.048 0.064 0.048 0.112s-0.016 0.080-0.048 0.112l-2.16 2.16 1.696 1.696c0.064 0.064 0.064 0.16 0 0.224-0.016 0.016-0.016 0.016-0.032 0.032-0.416 0.256-0.912 0.4-1.408 0.4zM23.551 5.986c-1.344 0-2.432 1.088-2.416 2.432 0 1.344 1.088 2.432 2.432 2.416 0.368 0 0.736-0.080 1.072-0.256l-1.68-1.664c-0.032-0.032-0.048-0.064-0.048-0.112s0.016-0.080 0.048-0.112l2.144-2.144c-0.432-0.368-0.976-0.56-1.552-0.56v0z"></path>
<path fill="#fff" style="fill: var(--color3, #fff)" d="M25.39 6.578l-0.032-0.032-2.288 2.256 1.808 1.808c0.176-0.112 0.352-0.24 0.496-0.384 1.024-1.008 1.024-2.64 0.016-3.647v0z"></path>
<path fill="#ff6c37" style="fill: var(--color25, #ff6c37)" d="M24.894 10.785c-0.048 0-0.080-0.016-0.112-0.048l-1.824-1.824c-0.032-0.032-0.048-0.064-0.048-0.112s0.016-0.080 0.048-0.112l2.272-2.272c0.064-0.064 0.16-0.064 0.224 0l0.048 0.032c1.072 1.072 1.072 2.8 0.016 3.887-0.16 0.16-0.336 0.304-0.528 0.416-0.048 0.016-0.080 0.032-0.096 0.032v0zM23.295 8.801l1.616 1.616c0.128-0.080 0.256-0.192 0.352-0.288 0.912-0.912 0.96-2.4 0.080-3.359l-2.048 2.032z"></path>
<path fill="#fff" style="fill: var(--color3, #fff)" d="M22.047 10.561c-0.384-0.384-1.008-0.384-1.392 0l-6.031 6.031 1.008 1.008 6.383-5.599c0.416-0.352 0.448-0.976 0.096-1.392-0.032-0.016-0.048-0.032-0.064-0.048v0z"></path>
<path fill="#ff6c37" style="fill: var(--color25, #ff6c37)" d="M15.616 17.76c-0.048 0-0.080-0.016-0.112-0.048l-1.008-1.008c-0.064-0.064-0.064-0.16 0-0.224l6.031-6.031c0.448-0.448 1.168-0.448 1.616 0s0.448 1.168 0 1.616c-0.016 0.016-0.032 0.032-0.048 0.048l-6.383 5.599c-0.016 0.032-0.048 0.048-0.096 0.048v0zM14.848 16.592l0.784 0.784 6.271-5.503c0.352-0.288 0.384-0.816 0.096-1.168s-0.816-0.384-1.168-0.096c-0.016 0.016-0.032 0.032-0.064 0.048l-5.919 5.935z"></path>
<path fill="#fff" style="fill: var(--color3, #fff)" d="M10.001 23.455c-0.064 0.032-0.096 0.096-0.080 0.16l0.272 1.152c0.064 0.16-0.032 0.352-0.208 0.4-0.128 0.048-0.272 0-0.352-0.096l-1.76-1.744 5.743-5.743 1.984 0.032 1.344 1.344c-0.32 0.272-2.256 2.144-6.943 4.495v0z"></path>
<path fill="#ff6c37" style="fill: var(--color25, #ff6c37)" d="M9.873 25.326c-0.128 0-0.256-0.048-0.336-0.144l-1.744-1.744c-0.032-0.032-0.048-0.064-0.048-0.112s0.016-0.080 0.048-0.112l5.743-5.743c0.032-0.032 0.080-0.048 0.112-0.048l1.984 0.032c0.048 0 0.080 0.016 0.112 0.048l1.344 1.344c0.032 0.032 0.048 0.080 0.048 0.128s-0.016 0.080-0.064 0.112l-0.112 0.096c-1.696 1.488-3.999 2.975-6.863 4.399l0.272 1.136c0.048 0.208-0.048 0.432-0.24 0.544-0.096 0.048-0.176 0.064-0.256 0.064zM8.113 23.327l1.648 1.632c0.048 0.080 0.144 0.112 0.224 0.064s0.112-0.144 0.064-0.224l-0.272-1.152c-0.032-0.144 0.032-0.272 0.16-0.336 2.832-1.424 5.119-2.895 6.799-4.351l-1.184-1.184-1.84-0.032-5.599 5.583z"></path>
<path fill="#fff" style="fill: var(--color3, #fff)" d="M6.514 24.702l1.376-1.376 2.048 2.048-3.263-0.224c-0.144-0.016-0.24-0.144-0.224-0.288 0-0.064 0.016-0.128 0.064-0.16v0z"></path>
<path fill="#ff6c37" style="fill: var(--color25, #ff6c37)" d="M9.937 25.518l-3.279-0.224c-0.24-0.016-0.4-0.224-0.384-0.464 0.016-0.096 0.048-0.192 0.128-0.256l1.376-1.376c0.064-0.064 0.16-0.064 0.224 0l2.048 2.048c0.048 0.048 0.064 0.112 0.032 0.176s-0.080 0.096-0.144 0.096v0zM7.889 23.551l-1.264 1.264c-0.048 0.032-0.048 0.112 0 0.144 0.016 0.016 0.032 0.032 0.064 0.032l2.832 0.192-1.632-1.632z"></path>
<path fill="#ff6c37" style="fill: var(--color25, #ff6c37)" d="M13.057 18.32c-0.096 0-0.16-0.080-0.16-0.16 0-0.048 0.016-0.080 0.048-0.112l1.552-1.552c0.064-0.064 0.16-0.064 0.224 0l1.008 1.008c0.048 0.048 0.064 0.096 0.048 0.16-0.016 0.048-0.064 0.096-0.128 0.112l-2.56 0.544c-0.016 0-0.032 0-0.032 0v0zM14.608 16.832l-1.056 1.056 1.728-0.368-0.672-0.688z"></path>
<path fill="#fff" style="fill: var(--color3, #fff)" d="M15.6 17.616l-1.76 0.384c-0.128 0.032-0.256-0.048-0.288-0.176-0.016-0.080 0-0.16 0.064-0.224l0.976-0.976 1.008 0.992z"></path>
<path fill="#ff6c37" style="fill: var(--color25, #ff6c37)" d="M13.808 18.16c-0.224 0-0.4-0.176-0.4-0.4 0-0.112 0.048-0.208 0.112-0.288l0.976-0.976c0.064-0.064 0.16-0.064 0.224 0l1.008 1.008c0.048 0.048 0.064 0.096 0.048 0.16-0.016 0.048-0.064 0.096-0.128 0.112l-1.76 0.384c-0.032 0-0.064 0-0.080 0v0zM14.608 16.832l-0.864 0.864c-0.032 0.032-0.032 0.064-0.016 0.096s0.048 0.048 0.096 0.048l1.472-0.32-0.688-0.688z"></path>
<path fill="#ff6c37" style="fill: var(--color25, #ff6c37)" d="M25.406 8.113c-0.032-0.096-0.144-0.144-0.24-0.112s-0.144 0.144-0.112 0.24c0 0.016 0.016 0.032 0.016 0.048 0.096 0.192 0.064 0.432-0.064 0.608-0.064 0.080-0.048 0.192 0.016 0.256 0.080 0.064 0.192 0.048 0.256-0.032 0.24-0.304 0.288-0.688 0.128-1.008v0z"></path>
</symbol>
<symbol id="react" viewBox="0 0 36 32">
<path fill="#00d8ff" style="fill: var(--color26, #00d8ff)" d="M29.542 10.361c-0.373-0.128-0.759-0.25-1.157-0.364 0.065-0.267 0.125-0.53 0.179-0.789 0.876-4.25 0.303-7.674-1.652-8.801-1.874-1.081-4.94 0.046-8.036 2.74-0.298 0.259-0.596 0.533-0.895 0.821-0.199-0.19-0.397-0.374-0.595-0.55-3.245-2.881-6.497-4.095-8.45-2.964-1.873 1.084-2.427 4.303-1.639 8.33 0.076 0.389 0.165 0.786 0.266 1.19-0.46 0.131-0.905 0.27-1.33 0.418-3.804 1.326-6.233 3.405-6.233 5.561 0 2.227 2.608 4.46 6.57 5.814 0.313 0.107 0.637 0.208 0.971 0.304-0.109 0.437-0.203 0.865-0.282 1.283-0.751 3.958-0.165 7.101 1.703 8.178 1.929 1.112 5.167-0.031 8.319-2.787 0.249-0.218 0.499-0.449 0.75-0.691 0.325 0.313 0.649 0.609 0.971 0.886 3.054 2.628 6.069 3.689 7.935 2.609 1.927-1.116 2.553-4.492 1.74-8.599-0.062-0.314-0.134-0.634-0.216-0.96 0.227-0.067 0.451-0.137 0.668-0.209 4.119-1.365 6.799-3.571 6.799-5.827 0-2.164-2.508-4.256-6.388-5.592v0zM28.648 20.324c-0.196 0.065-0.398 0.128-0.603 0.189-0.455-1.44-1.068-2.97-1.819-4.552 0.717-1.544 1.307-3.055 1.749-4.485 0.368 0.106 0.724 0.219 1.068 0.337 3.325 1.145 5.353 2.837 5.353 4.141 0 1.389-2.19 3.192-5.747 4.37v0zM27.172 23.248c0.36 1.816 0.411 3.458 0.173 4.742-0.214 1.154-0.644 1.923-1.176 2.231-1.132 0.655-3.554-0.197-6.165-2.444-0.299-0.258-0.601-0.533-0.903-0.824 1.012-1.107 2.024-2.394 3.012-3.824 1.737-0.154 3.378-0.406 4.866-0.75 0.073 0.296 0.138 0.586 0.195 0.869v0zM12.249 30.107c-1.106 0.391-1.987 0.402-2.52 0.095-1.133-0.654-1.604-3.177-0.962-6.562 0.074-0.388 0.161-0.786 0.262-1.193 1.472 0.325 3.101 0.56 4.842 0.701 0.994 1.399 2.035 2.685 3.084 3.811-0.229 0.221-0.458 0.432-0.685 0.63-1.394 1.219-2.791 2.083-4.022 2.518v0zM7.066 20.315c-1.752-0.599-3.199-1.377-4.191-2.226-0.891-0.763-1.341-1.521-1.341-2.136 0-1.308 1.951-2.977 5.204-4.111 0.395-0.138 0.808-0.267 1.237-0.389 0.45 1.463 1.039 2.992 1.751 4.538-0.721 1.569-1.319 3.123-1.773 4.602-0.306-0.088-0.602-0.18-0.887-0.278v0zM8.804 8.49c-0.675-3.451-0.227-6.054 0.902-6.707 1.202-0.696 3.86 0.296 6.661 2.784 0.179 0.159 0.359 0.325 0.539 0.498-1.044 1.121-2.075 2.397-3.061 3.788-1.69 0.157-3.307 0.408-4.795 0.745-0.094-0.376-0.176-0.746-0.247-1.107v0zM24.302 12.316c-0.356-0.614-0.721-1.214-1.093-1.797 1.146 0.145 2.245 0.337 3.276 0.573-0.31 0.992-0.696 2.030-1.15 3.094-0.326-0.619-0.671-1.243-1.034-1.87v0zM17.982 6.161c0.708 0.767 1.417 1.623 2.114 2.553-0.703-0.033-1.414-0.050-2.131-0.050-0.711 0-1.417 0.017-2.115 0.050 0.698-0.92 1.413-1.776 2.132-2.552v0zM11.621 12.327c-0.355 0.616-0.693 1.236-1.014 1.858-0.447-1.060-0.829-2.102-1.142-3.109 1.025-0.229 2.118-0.417 3.257-0.559-0.377 0.589-0.745 1.193-1.101 1.81v0zM12.756 21.499c-1.177-0.131-2.287-0.309-3.311-0.532 0.317-1.024 0.708-2.089 1.165-3.172 0.322 0.621 0.661 1.242 1.019 1.859h0c0.364 0.629 0.741 1.245 1.128 1.845v0zM18.025 25.854c-0.727-0.785-1.453-1.653-2.162-2.587 0.688 0.027 1.389 0.041 2.102 0.041 0.732 0 1.456-0.017 2.169-0.048-0.7 0.951-1.406 1.82-2.109 2.595v0zM25.351 17.74c0.48 1.095 0.885 2.154 1.206 3.161-1.042 0.238-2.167 0.429-3.352 0.571 0.373-0.591 0.741-1.201 1.103-1.828 0.366-0.635 0.714-1.27 1.042-1.904v0zM22.979 18.877c-0.562 0.974-1.138 1.903-1.724 2.781-1.066 0.076-2.168 0.116-3.29 0.116-1.118 0-2.206-0.035-3.253-0.103-0.609-0.889-1.198-1.821-1.756-2.785h0c-0.557-0.961-1.069-1.931-1.533-2.895 0.464-0.966 0.975-1.937 1.528-2.896l-0 0c0.555-0.962 1.139-1.89 1.742-2.774 1.069-0.081 2.164-0.123 3.272-0.123h0c1.112 0 2.209 0.042 3.278 0.124 0.594 0.877 1.174 1.802 1.731 2.764 0.563 0.973 1.081 1.937 1.549 2.883-0.467 0.962-0.983 1.936-1.544 2.908v0zM26.145 1.737c1.203 0.694 1.671 3.492 0.915 7.162-0.048 0.234-0.103 0.473-0.162 0.714-1.491-0.344-3.109-0.6-4.804-0.759-0.987-1.406-2.010-2.684-3.037-3.791 0.276-0.266 0.552-0.519 0.826-0.758 2.653-2.308 5.132-3.22 6.261-2.568v0zM17.965 12.745c1.772 0 3.208 1.436 3.208 3.208s-1.436 3.208-3.208 3.208-3.208-1.436-3.208-3.208c0-1.772 1.436-3.208 3.208-3.208v0z"></path>
</symbol>
<symbol id="redux" viewBox="0 0 34 32">
<path fill="#764abc" style="fill: var(--color27, #764abc)" d="M23.263 22.26c1.239-0.128 2.179-1.196 2.136-2.478s-1.111-2.307-2.393-2.307h-0.085c-1.324 0.043-2.35 1.154-2.307 2.478 0.043 0.641 0.299 1.196 0.684 1.581-1.453 2.863-3.674 4.956-7.007 6.708-2.264 1.196-4.614 1.624-6.964 1.325-1.923-0.256-3.418-1.111-4.358-2.521-1.367-2.094-1.495-4.358-0.342-6.622 0.812-1.624 2.093-2.82 2.905-3.418-0.171-0.555-0.427-1.495-0.555-2.179-6.195 4.486-5.554 10.553-3.674 13.416 1.41 2.136 4.272 3.461 7.434 3.461 0.854 0 1.709-0.085 2.563-0.299 5.469-1.068 9.613-4.315 11.963-9.143zM30.782 16.962c-3.247-3.803-8.032-5.896-13.501-5.896h-0.684c-0.385-0.769-1.196-1.282-2.093-1.282h-0.085c-1.324 0.043-2.35 1.154-2.307 2.478 0.043 1.282 1.111 2.307 2.393 2.307h0.085c0.94-0.043 1.752-0.641 2.093-1.453h0.769c3.247 0 6.323 0.94 9.1 2.777 2.136 1.41 3.674 3.247 4.529 5.469 0.726 1.794 0.684 3.546-0.085 5.042-1.196 2.264-3.204 3.503-5.853 3.503-1.709 0-3.332-0.513-4.187-0.897-0.47 0.427-1.324 1.111-1.923 1.538 1.837 0.855 3.717 1.325 5.511 1.325 4.101 0 7.135-2.264 8.288-4.529 1.239-2.478 1.154-6.751-2.051-10.382zM9.079 22.986c0.043 1.282 1.111 2.307 2.393 2.307h0.085c1.324-0.043 2.35-1.154 2.307-2.478-0.043-1.282-1.111-2.307-2.393-2.307h-0.085c-0.085 0-0.214 0-0.299 0.043-1.752-2.905-2.478-6.067-2.222-9.485 0.171-2.564 1.025-4.785 2.521-6.622 1.239-1.581 3.632-2.35 5.255-2.393 4.529-0.085 6.451 5.554 6.579 7.819 0.555 0.128 1.495 0.427 2.136 0.641-0.513-6.922-4.785-10.511-8.887-10.511-3.845 0-7.391 2.777-8.801 6.879-1.965 5.469-0.684 10.724 1.709 14.868-0.214 0.299-0.342 0.769-0.299 1.239z"></path>
</symbol>
<symbol id="sass" viewBox="0 0 43 32">
<path fill="#cd6799" style="fill: var(--color28, #cd6799)" d="M36.714 18.419c-1.484 0.008-2.775 0.365-3.855 0.894-0.396-0.785-0.793-1.484-0.863-1.997-0.078-0.598-0.171-0.964-0.078-1.679s0.513-1.733 0.505-1.811c-0.008-0.078-0.093-0.443-0.948-0.451s-1.593 0.163-1.679 0.389c-0.085 0.225-0.249 0.738-0.358 1.267-0.148 0.777-1.71 3.552-2.604 5.005-0.288-0.567-0.536-1.065-0.591-1.461-0.078-0.598-0.171-0.964-0.078-1.679s0.513-1.733 0.505-1.811c-0.008-0.078-0.093-0.443-0.948-0.451s-1.593 0.163-1.679 0.389c-0.085 0.225-0.179 0.754-0.358 1.267s-2.254 5.145-2.798 6.342c-0.28 0.614-0.521 1.104-0.692 1.438v0c0 0-0.008 0.023-0.031 0.062-0.148 0.288-0.233 0.443-0.233 0.443s0 0 0 0.008c-0.117 0.21-0.241 0.404-0.303 0.404-0.047 0-0.132-0.56 0.016-1.321 0.311-1.609 1.049-4.111 1.041-4.197 0-0.047 0.14-0.482-0.482-0.707-0.606-0.225-0.824 0.148-0.878 0.148s-0.093 0.132-0.093 0.132c0 0 0.676-2.813-1.29-2.813-1.228 0-2.922 1.345-3.761 2.557-0.528 0.288-1.655 0.902-2.86 1.562-0.459 0.256-0.933 0.513-1.376 0.754-0.031-0.031-0.062-0.070-0.093-0.101-2.378-2.541-6.777-4.337-6.59-7.748 0.070-1.243 0.497-4.508 8.448-8.471 6.544-3.225 11.751-2.332 12.652-0.35 1.29 2.829-2.79 8.083-9.551 8.844-2.58 0.288-3.932-0.707-4.274-1.080-0.357-0.389-0.412-0.412-0.544-0.334-0.218 0.117-0.078 0.466 0 0.668 0.202 0.528 1.034 1.461 2.44 1.92 1.243 0.404 4.267 0.63 7.927-0.785 4.096-1.585 7.298-5.992 6.357-9.684-0.94-3.746-7.158-4.982-13.041-2.891-3.497 1.243-7.29 3.202-10.018 5.751-3.241 3.031-3.754 5.666-3.544 6.769 0.754 3.917 6.155 6.466 8.316 8.355-0.109 0.062-0.21 0.117-0.295 0.163-1.080 0.536-5.199 2.689-6.225 4.966-1.166 2.58 0.187 4.43 1.080 4.679 2.775 0.769 5.627-0.614 7.158-2.899s1.345-5.254 0.637-6.614c-0.008-0.016-0.016-0.031-0.031-0.047 0.28-0.163 0.567-0.334 0.847-0.497 0.552-0.326 1.096-0.63 1.562-0.878-0.264 0.723-0.459 1.585-0.552 2.829-0.117 1.461 0.482 3.357 1.267 4.103 0.35 0.326 0.762 0.334 1.026 0.334 0.917 0 1.329-0.762 1.788-1.663 0.56-1.104 1.065-2.386 1.065-2.386s-0.63 3.466 1.080 3.466c0.622 0 1.251-0.808 1.531-1.22v0.008c0 0 0.016-0.023 0.047-0.078 0.062-0.101 0.101-0.163 0.101-0.163v-0.016c0.249-0.435 0.808-1.422 1.64-3.062 1.073-2.114 2.106-4.756 2.106-4.756s0.093 0.645 0.412 1.718c0.187 0.63 0.575 1.321 0.886 1.99-0.249 0.35-0.404 0.544-0.404 0.544s0 0 0.008 0.008c-0.202 0.264-0.42 0.552-0.661 0.832-0.847 1.010-1.857 2.168-1.997 2.503-0.163 0.396-0.124 0.684 0.187 0.917 0.225 0.171 0.63 0.194 1.041 0.171 0.762-0.054 1.298-0.241 1.562-0.358 0.412-0.148 0.894-0.373 1.345-0.707 0.832-0.614 1.337-1.492 1.29-2.65-0.023-0.637-0.233-1.275-0.49-1.873 0.078-0.109 0.148-0.218 0.225-0.326 1.313-1.92 2.332-4.026 2.332-4.026s0.093 0.645 0.412 1.718c0.155 0.544 0.474 1.135 0.754 1.71-1.236 1.003-1.997 2.168-2.269 2.93-0.49 1.414-0.109 2.052 0.614 2.199 0.326 0.070 0.793-0.085 1.135-0.233 0.435-0.14 0.948-0.381 1.438-0.738 0.832-0.614 1.632-1.469 1.585-2.627-0.023-0.528-0.163-1.049-0.358-1.554 1.049-0.435 2.401-0.676 4.127-0.474 3.699 0.435 4.43 2.743 4.29 3.715s-0.917 1.5-1.174 1.663c-0.256 0.163-0.342 0.218-0.319 0.334 0.031 0.171 0.155 0.163 0.373 0.132 0.303-0.054 1.943-0.785 2.013-2.572 0.117-2.285-2.059-4.78-5.907-4.756v0zM8.176 28.040c-1.228 1.337-2.938 1.842-3.676 1.414-0.793-0.459-0.482-2.433 1.026-3.847 0.917-0.863 2.098-1.663 2.883-2.153 0.179-0.109 0.443-0.264 0.762-0.459 0.054-0.031 0.085-0.047 0.085-0.047v0c0.062-0.039 0.124-0.078 0.187-0.117 0.552 2.021 0.023 3.8-1.267 5.207v0zM17.113 21.963c-0.427 1.041-1.321 3.707-1.865 3.559-0.466-0.124-0.754-2.145-0.093-4.142 0.334-1.003 1.041-2.199 1.453-2.666 0.668-0.746 1.407-0.995 1.585-0.692 0.225 0.396-0.816 3.287-1.080 3.94v0zM24.489 25.491c-0.179 0.093-0.35 0.155-0.427 0.109-0.054-0.031 0.078-0.155 0.078-0.155s0.925-0.995 1.29-1.446c0.21-0.264 0.459-0.575 0.723-0.925v0.101c0 1.189-1.15 1.99-1.663 2.316v0zM30.178 24.193c-0.132-0.093-0.109-0.404 0.334-1.376 0.171-0.381 0.575-1.018 1.267-1.632 0.078 0.249 0.132 0.49 0.124 0.715-0.008 1.5-1.080 2.059-1.725 2.293v0z"></path>
</symbol>
</defs>
</svg>
